<svg width="1360" height="1921" viewBox="0 0 1360 1921" fill="none" xmlns="http://www.w3.org/2000/svg">
<rect width="1360" height="1921" rx="8" fill="url(#paint0_linear_170_4794)"/>
<g opacity="0.3">
<g filter="url(#filter0_f_170_4794)">
<path d="M1167 470.046C1144.46 660.525 986.96 643.283 863.654 629.603C812.111 623.884 761.986 604.64 721.374 572.389C633.582 502.671 622.445 500.697 621.158 436.282C620.599 408.328 637.294 386.934 657.26 367.361C714.184 311.558 781.974 266.943 858.303 289.925C1000.44 332.722 1167 372.714 1167 470.046Z" fill="url(#paint1_linear_170_4794)"/>
</g>
</g>
<g opacity="0.3">
<g filter="url(#filter1_f_170_4794)">
<path d="M701.201 966.023C542.304 1186.78 383.064 1057.28 260.233 963.634C215.327 929.398 179.664 882.629 162.268 828.716C111.216 670.499 99.1729 668.098 148.987 579.086C165.347 549.853 193 536.736 225.193 528.018C328.115 500.146 438.854 491.205 509.662 571.916C628.649 707.547 765.977 852.707 701.201 966.023Z" fill="url(#paint2_linear_170_4794)"/>
</g>
</g>
<defs>
<filter id="filter0_f_170_4794" x="557.144" y="219.753" width="673.856" height="481.551" filterUnits="userSpaceOnUse" color-interpolation-filters="sRGB">
<feFlood flood-opacity="0" result="BackgroundImageFix"/>
<feBlend mode="normal" in="SourceGraphic" in2="BackgroundImageFix" result="shape"/>
<feGaussianBlur stdDeviation="32" result="effect1_foregroundBlur_170_4794"/>
</filter>
<filter id="filter1_f_170_4794" x="53.2124" y="444.153" width="728.612" height="707.388" filterUnits="userSpaceOnUse" color-interpolation-filters="sRGB">
<feFlood flood-opacity="0" result="BackgroundImageFix"/>
<feBlend mode="normal" in="SourceGraphic" in2="BackgroundImageFix" result="shape"/>
<feGaussianBlur stdDeviation="32" result="effect1_foregroundBlur_170_4794"/>
</filter>
<linearGradient id="paint0_linear_170_4794" x1="680" y1="0" x2="680" y2="1731.11" gradientUnits="userSpaceOnUse">
<stop stop-color="#F3F9FF"/>
<stop offset="1" stop-color="#F3F9FF"/>
</linearGradient>
<linearGradient id="paint1_linear_170_4794" x1="980.526" y1="659.814" x2="890.687" y2="312.125" gradientUnits="userSpaceOnUse">
<stop stop-color="#0087FF"/>
<stop offset="1" stop-color="#DCEFFF" stop-opacity="0"/>
</linearGradient>
<linearGradient id="paint2_linear_170_4794" x1="372.372" y1="1079.14" x2="491.812" y2="598.451" gradientUnits="userSpaceOnUse">
<stop stop-color="#0087FF"/>
<stop offset="1" stop-color="#DCEFFF" stop-opacity="0"/>
</linearGradient>
</defs>
</svg>
