<svg width="1440" height="1024" viewBox="0 0 1440 1024" fill="none" xmlns="http://www.w3.org/2000/svg">
<circle cx="618" cy="835" r="21.5" stroke="#CAE6FF"/>
<circle cx="10" cy="10" r="10" transform="matrix(-1 0 0 1 628 825)" fill="#E4F2FF"/>
<circle cx="963" cy="227" r="15.5" stroke="white"/>
<circle cx="271" cy="720" r="12.5" stroke="white"/>
<circle cx="6" cy="6" r="6" transform="matrix(-1 0 0 1 277 714)" fill="#D7ECFF"/>
<circle cx="6" cy="6" r="6" transform="matrix(-1 0 0 1 589 118)" fill="#D7ECFF"/>
<circle cx="6" cy="6" r="6" transform="matrix(-1 0 0 1 1187 228)" fill="#D7ECFF"/>
<circle cx="14.004" cy="14.004" r="13.504" transform="matrix(0.5 -0.866025 -0.866025 -0.5 480.656 708.75)" stroke="#CAE6FF"/>
<circle cx="16.8048" cy="16.8048" r="16.8048" transform="matrix(0.5 -0.866025 -0.866025 -0.5 467.402 720.503)" fill="#DDEFFF"/>
<circle cx="378.924" cy="448.963" r="23.3069" transform="rotate(120 378.924 448.963)" stroke="#CAE6FF"/>
<circle cx="358.457" cy="793.435" r="32.1761" transform="rotate(120 358.457 793.435)" stroke="white"/>
<circle cx="594.575" cy="741.103" r="11.6368" transform="rotate(120 594.575 741.103)" stroke="white"/>
<circle cx="5.60162" cy="5.60162" r="5.60162" transform="matrix(0.5 -0.866025 -0.866025 -0.5 596.625 748.755)" fill="#D7ECFF"/>
<circle cx="7.93562" cy="7.93562" r="7.93562" transform="matrix(0.5 -0.866025 -0.866025 -0.5 403.726 457.353)" fill="#E4F2FF"/>
<circle cx="14.9376" cy="14.9376" r="14.9376" transform="matrix(0.5 -0.866025 -0.866025 -0.5 363.924 813.841)" fill="#D7ECFF"/>
<circle cx="14.004" cy="14.004" r="13.504" transform="matrix(0.965926 0.258819 0.258819 -0.965926 1098.2 718.175)" stroke="#CAE6FF"/>
<circle cx="16.8048" cy="16.8048" r="16.8048" transform="matrix(0.965926 0.258819 0.258819 -0.965926 1083.42 708.415)" fill="#DDEFFF"/>
<circle cx="1322.81" cy="552.671" r="23.3069" transform="rotate(-165 1322.81 552.671)" stroke="#CAE6FF"/>
<circle cx="984.776" cy="622.058" r="32.1761" transform="rotate(-165 984.776 622.058)" stroke="white"/>
<circle cx="1096.44" cy="836.586" r="11.6368" transform="rotate(-165 1096.44 836.586)" stroke="white"/>
<circle cx="5.60162" cy="5.60162" r="5.60162" transform="matrix(0.965926 0.258819 0.258819 -0.965926 1089.58 840.547)" fill="#D7ECFF"/>
<circle cx="7.93562" cy="7.93562" r="7.93562" transform="matrix(0.965926 0.258819 0.258819 -0.965926 1321.12 578.8)" fill="#E4F2FF"/>
<circle cx="14.9376" cy="14.9376" r="14.9376" transform="matrix(0.965926 0.258819 0.258819 -0.965926 966.481 632.62)" fill="#D7ECFF"/>
<circle cx="14.4007" cy="14.4007" r="13.9007" transform="matrix(-0.5 0.866025 0.866025 0.5 302.53 287.154)" stroke="#CAE6FF"/>
<circle cx="17.2809" cy="17.2809" r="17.2809" transform="matrix(-0.5 0.866025 0.866025 0.5 316.159 275.068)" fill="#DDEFFF"/>
<circle cx="407.144" cy="554.3" r="23.9812" transform="rotate(-60 407.144 554.3)" stroke="#CAE6FF"/>
<circle cx="428.191" cy="200.07" r="33.1017" transform="rotate(-60 428.191 200.07)" stroke="white"/>
<circle cx="185.384" cy="253.885" r="11.9806" transform="rotate(-60 185.384 253.885)" stroke="white"/>
<circle cx="5.76029" cy="5.76029" r="5.76029" transform="matrix(-0.5 0.866025 0.866025 0.5 183.276 246.016)" fill="#D7ECFF"/>
<circle cx="8.16042" cy="8.16042" r="8.16042" transform="matrix(-0.5 0.866025 0.866025 0.5 381.64 545.672)" fill="#E4F2FF"/>
<circle cx="15.3608" cy="15.3608" r="15.3608" transform="matrix(-0.5 0.866025 0.866025 0.5 422.568 179.086)" fill="#D7ECFF"/>
</svg>
