<svg width="50" height="51" viewBox="0 0 50 51" fill="none" xmlns="http://www.w3.org/2000/svg">
<circle cx="41" cy="8" r="8" fill="#C10000"/>
<path d="M24.3337 15.3961L25.6658 15.3961C26.933 15.3961 27.9639 14.3651 27.9639 13.098L27.9639 12.025C27.9639 10.7577 26.9329 9.72685 25.6658 9.72685L24.3337 9.72685C23.0664 9.72685 22.0355 10.7578 22.0355 12.025L22.0355 13.098C22.0355 14.3651 23.0665 15.3961 24.3337 15.3961ZM23.5004 12.0249C23.5004 11.5654 23.8742 11.1916 24.3337 11.1916L25.6658 11.1916C26.1253 11.1916 26.499 11.5654 26.499 12.0249L26.499 13.0979C26.499 13.5574 26.1253 13.9311 25.6658 13.9311L24.3337 13.9311C23.8742 13.9311 23.5004 13.5574 23.5004 13.0979L23.5004 12.0249Z" fill="black"/>
<path d="M22.733 29.2617C22.7556 28.8578 22.4466 28.512 22.0428 28.4893C21.6388 28.4662 21.2931 28.7756 21.2705 29.1794L21.2002 30.4275C21.1409 31.483 21.5081 32.4874 22.2343 33.2557C22.9606 34.024 23.9427 34.4471 24.9999 34.4471C26.0569 34.4471 27.0391 34.0241 27.7652 33.2559C28.4916 32.4876 28.8587 31.4832 28.7995 30.4276L28.2035 19.8384C28.1203 18.3628 26.8975 17.2069 25.4195 17.2069L24.5799 17.2069C23.102 17.2069 21.8792 18.3628 21.796 19.8384L21.4355 26.2458C21.4128 26.6498 21.7218 26.9956 22.1255 27.0183C22.5303 27.0391 22.8753 26.7321 22.898 26.3283L23.2585 19.9208C23.298 19.2204 23.8784 18.6717 24.5798 18.6717L25.4194 18.6717C26.1209 18.6717 26.7013 19.2204 26.7408 19.9208L27.3368 30.5099C27.3733 31.1592 27.1474 31.7771 26.7006 32.2496C26.254 32.722 25.6499 32.9823 24.9997 32.9823C24.3495 32.9823 23.7453 32.722 23.2986 32.2495C22.8519 31.7769 22.626 31.1591 22.6625 30.5099L22.733 29.2617Z" fill="black"/>
<path d="M40.4824 7.38105C36.3345 3.26231 30.8422 1 25.0007 1C24.9475 1 24.8937 1.0002 24.8404 1.00059C21.7293 1.02275 18.7222 1.68955 15.9026 2.98262C13.1821 4.23027 10.7755 5.99316 8.74992 8.22227C8.47795 8.52158 8.50002 8.98486 8.79944 9.25693C9.09866 9.529 9.56194 9.50693 9.8341 9.20742C11.7261 7.12529 13.9733 5.47891 16.5133 4.31416C19.1433 3.10801 21.9485 2.48604 24.8509 2.46543C24.9011 2.46504 24.9505 2.46484 25.0005 2.46484C30.4524 2.46484 35.5791 4.57656 39.4503 8.42041C43.3574 12.3 45.5092 17.4687 45.5092 22.9744C45.5092 26.6487 44.5263 30.2529 42.6666 33.3974C40.8606 36.4512 38.2802 38.9996 35.2045 40.7673C34.8538 40.9688 34.7329 41.4165 34.9344 41.7673C35.0699 42.0029 35.3164 42.1349 35.5701 42.1349C35.694 42.1349 35.8195 42.1035 35.9344 42.0374C39.2289 40.1439 41.9929 37.4141 43.9275 34.1431C45.9205 30.773 46.9741 26.9108 46.9741 22.9744C46.974 17.0755 44.6685 11.5376 40.4824 7.38105Z" fill="black"/>
<path d="M32.6503 42.0074C31.9893 42.2733 31.3102 42.5061 30.632 42.6995C29.6383 42.9825 28.8107 43.6248 28.3014 44.508L25.604 49.1861C25.4224 49.5013 25.1208 49.5353 24.9996 49.5353C24.8784 49.5353 24.577 49.5012 24.3952 49.1861L21.698 44.5081C21.1888 43.6251 20.3608 42.9827 19.3663 42.6993C15.1936 41.51 11.4262 38.9531 8.75843 35.4996C6.0054 31.9357 4.52962 27.6667 4.49105 23.154C4.45511 18.9646 5.69114 14.9159 8.06536 11.4457C8.29388 11.1118 8.20833 10.6561 7.87454 10.4276C7.54056 10.1991 7.08479 10.2848 6.85647 10.6185C4.31224 14.3371 2.98782 18.6762 3.0262 23.1665C3.06771 28.0017 4.64896 32.576 7.59925 36.395C10.457 40.0942 14.4933 42.8335 18.9649 44.1079C19.5911 44.2863 20.1111 44.6883 20.429 45.2396L23.1263 49.9178C23.517 50.5953 24.2174 51 24.9997 51C25.7821 51 26.4825 50.5953 26.8732 49.9177L29.5705 45.2395C29.8885 44.6882 30.408 44.2863 31.0335 44.1082C31.761 43.9009 32.4889 43.6513 33.1971 43.3663C33.5724 43.2153 33.7542 42.7888 33.6033 42.4135C33.4522 42.0382 33.0252 41.8566 32.6503 42.0074Z" fill="black"/>
</svg>
