<svg width="280" height="302" viewBox="0 0 280 302" fill="none" xmlns="http://www.w3.org/2000/svg">
<path d="M151.997 203.278L85.2842 150.061L148.348 66.0559L233.298 81.7114L151.997 203.278Z" fill="#0093DD"/>
<path d="M158.649 131.079L147.631 125.008L157.326 116.528L254.24 107.698C255.007 107.626 255.781 107.706 256.517 107.935C257.253 108.163 257.937 108.535 258.529 109.029C259.121 109.523 259.61 110.129 259.967 110.812C260.324 111.496 260.543 112.243 260.611 113.012L260.871 115.87C261.011 117.42 260.531 118.963 259.535 120.159C258.54 121.355 257.111 122.106 255.563 122.248L158.649 131.079Z" fill="#C63539"/>
<path d="M218.084 138.017L206.781 134.53L193.771 119.76C192.612 118.443 191.005 117.605 189.262 117.411C187.519 117.217 185.767 117.68 184.347 118.71C183.542 119.296 182.869 120.047 182.375 120.913C181.88 121.779 181.574 122.74 181.478 123.733C181.381 124.725 181.495 125.727 181.814 126.673C182.132 127.618 182.646 128.485 183.324 129.216L200.687 145.933L201.539 163.177L222.298 175.425" stroke="black" stroke-miterlimit="10"/>
<path d="M227.127 122.515L212.977 136.956" stroke="black" stroke-miterlimit="10"/>
<path d="M247.671 123.174L251.001 128.206L234.577 172.329" stroke="black" stroke-miterlimit="10"/>
<path d="M196.362 113.308L215.546 103.197L232.318 104.993L236.883 109.206" stroke="black" stroke-miterlimit="10"/>
<path d="M101.441 132.005C101.441 132.005 108.704 128.711 119.268 124.737C129.833 120.763 126.857 109.206 126.857 109.206L106.723 117.136L84.9399 123.416L76.0205 148.538" stroke="black" stroke-miterlimit="10"/>
<path d="M95.4935 131.013C95.4935 131.013 109.359 144.553 89.8823 167.363" stroke="black" stroke-miterlimit="10"/>
<path d="M31.5259 101.049L70.9502 1.18694C70.9502 1.18694 131.068 -4.74519 117.422 50.2248L126.298 62.605L109.117 66.9306L78.0455 175.224" stroke="black" stroke-miterlimit="10"/>
<path d="M92.7483 135.364C92.7483 135.364 64.1735 80.0098 30.6601 118.347C-2.85334 156.685 27.9952 243.251 55.6233 291.758C83.2514 340.266 137.711 180.618 145.307 209.521C152.903 238.424 120.252 297.716 167.035 271.001C213.818 244.287 277.478 210.923 278.366 205.993C279.254 201.064 244.242 217.338 241.446 218.937C238.649 220.536 292.685 189.69 273.274 197.075C253.863 204.46 231.51 215.739 231.51 215.739C231.51 215.739 291.738 182.839 276.542 188.556C261.346 194.272 231.437 209.129 231.437 209.129C231.437 209.129 284.898 183.787 270.978 186.561C257.058 189.335 225.793 205.7 225.793 205.7C225.793 205.7 277.335 177.013 263.989 179.469C250.643 181.924 219.601 197.401 219.601 197.401C219.601 197.401 175.596 227.691 180.224 212.489C184.852 197.287 196.673 135.126 82.8639 159.459C-30.9457 183.791 -1.66897 83.6035 26.8693 90.9518" stroke="black" stroke-miterlimit="10"/>
<path d="M141.962 87.7096L203.462 100.756" stroke="black" stroke-miterlimit="10"/>
<path d="M133.102 100.756L169.064 109.103" stroke="black" stroke-miterlimit="10"/>
<path d="M125.286 115.365L144.046 122.669" stroke="black" stroke-miterlimit="10"/>
<path d="M110.693 127.884L172.189 149.278" stroke="black" stroke-miterlimit="10"/>
<path d="M106.003 143.016L151.342 172.234" stroke="black" stroke-miterlimit="10"/>
<path d="M18.6007 33.1785C21.3827 33.1785 23.638 30.9207 23.638 28.1356C23.638 25.3505 21.3827 23.0928 18.6007 23.0928C15.8187 23.0928 13.5635 25.3505 13.5635 28.1356C13.5635 30.9207 15.8187 33.1785 18.6007 33.1785Z" fill="#0093DD"/>
<path d="M152.259 20.0482C154.54 20.0482 156.39 18.1967 156.39 15.9129C156.39 13.629 154.54 11.7776 152.259 11.7776C149.978 11.7776 148.128 13.629 148.128 15.9129C148.128 18.1967 149.978 20.0482 152.259 20.0482Z" fill="#494993"/>
<path d="M25.5021 182.47C28.2841 182.47 30.5393 180.212 30.5393 177.427C30.5393 174.642 28.2841 172.384 25.5021 172.384C22.7201 172.384 20.4648 174.642 20.4648 177.427C20.4648 180.212 22.7201 182.47 25.5021 182.47Z" fill="#494993"/>
<path d="M74.7931 225.865C77.5751 225.865 79.8303 223.607 79.8303 220.822C79.8303 218.037 77.5751 215.779 74.7931 215.779C72.0111 215.779 69.7559 218.037 69.7559 220.822C69.7559 223.607 72.0111 225.865 74.7931 225.865Z" fill="#0093DD"/>
</svg>
