<svg width="319" height="302" viewBox="0 0 319 302" fill="none" xmlns="http://www.w3.org/2000/svg">
<path d="M205.884 109.873C202.041 116.348 204.484 124.532 211.346 128.171L198.756 149.392L176.008 137.393L175.866 137.64C171.952 144.003 163.342 146.23 156.528 142.641C149.715 139.052 147.219 130.975 150.923 124.501C150.971 124.42 151.02 124.339 151.072 124.258L128.077 112.146L167.588 45.5897L190.583 57.6982L190.459 57.8993C186.609 64.3888 189.072 72.59 195.96 76.2173C202.848 79.8445 211.552 77.5242 215.402 71.0348C215.444 70.9712 215.485 70.9006 215.522 70.8336L238.267 82.815L225.291 104.696C218.413 101.092 209.736 103.406 205.884 109.873Z" fill="#C63539"/>
<path d="M298.533 105.303C304.425 110.236 304.962 118.733 299.732 124.289L299.706 124.321L319 140.46L301.698 158.811C295.769 154.192 287.022 154.827 281.913 160.247C276.804 165.667 277.169 173.926 282.737 178.927L265.248 197.491L204.702 146.876L222.187 128.316C216.64 123.308 216.289 115.064 221.391 109.653C226.494 104.242 235.224 103.6 241.156 108.2L258.454 89.8486L278.344 106.485L278.374 106.453C283.606 100.895 292.627 100.38 298.533 105.303Z" fill="#0093DD"/>
<path d="M70.1084 97.4857L110.507 1.1792C110.507 1.1792 172.113 -4.52741 158.127 48.466L167.203 60.4086L149.597 64.5695L117.8 169.018" stroke="black" stroke-width="1.26" stroke-miterlimit="10" stroke-linecap="round"/>
<path d="M144.694 86.023C144.694 86.023 152.133 82.8468 162.958 79.0106C173.783 75.1744 170.738 64.033 170.738 64.033L150.103 71.6806L127.782 77.7366L118.649 101.953" stroke="black" stroke-width="1.26" stroke-miterlimit="10" stroke-linecap="round"/>
<path d="M138.603 85.0702C138.603 85.0702 152.811 98.128 132.854 120.122" stroke="black" stroke-width="1.26" stroke-miterlimit="10" stroke-linecap="round"/>
<path d="M250.793 191.378C266.398 165.347 286.689 178.634 286.689 178.634L294.843 171.781L297.405 143.325C297.61 141.058 299.623 139.316 302.039 139.316C303.303 139.316 304.512 139.801 305.389 140.66C306.265 141.518 306.733 142.675 306.684 143.865L305.56 170.863V174.844L266.229 211.138C266.229 211.138 263.304 190.93 242.335 197.967C222.19 204.725 215.253 242.229 195.711 222.007" stroke="black" stroke-width="1.26" stroke-miterlimit="10" stroke-linecap="round"/>
<path d="M241.915 177.844C241.915 177.844 235.922 183.491 239.443 192.162" stroke="black" stroke-width="1.26" stroke-miterlimit="10" stroke-linecap="round"/>
<path d="M187.662 125.08C186.977 125.563 233.593 264.456 149.103 230.975C102.064 212.334 52.698 168.651 118.133 153.242C183.568 137.834 275.725 170.052 253.018 228.395C230.311 286.739 149.635 257.574 118.152 246.835C86.6685 236.096 73.6969 299.592 72.1985 300.527C70.7002 301.462 65.2052 301.939 66.7035 292.59C66.7035 292.59 56.7135 307.06 57.7136 297.259C58.7138 287.459 57.7136 291.189 57.7136 291.189C57.7136 291.189 44.2289 306.597 46.7235 296.324L49.222 286.054C49.222 286.054 38.7338 307.063 39.232 295.858C39.7302 284.653 45.2252 276.716 45.2252 276.716C45.2252 276.716 28.7438 303.795 29.7402 293.056C30.7366 282.317 38.7301 216.474 83.1886 220.225C127.647 223.977 121.65 209.02 137.633 207.168C153.617 205.315 204.065 230.043 212.549 219.774C221.033 209.504 190.572 186.624 189.074 188.011" stroke="black" stroke-width="1.26" stroke-miterlimit="10" stroke-linecap="round"/>
<path d="M66.752 50.2024C69.6027 50.2024 71.9137 48.0251 71.9137 45.3392C71.9137 42.6534 69.6027 40.4761 66.752 40.4761C63.9013 40.4761 61.5903 42.6534 61.5903 45.3392C61.5903 48.0251 63.9013 50.2024 66.752 50.2024Z" fill="#0093DD"/>
<path d="M203.708 37.5398C206.046 37.5398 207.941 35.7543 207.941 33.5519C207.941 31.3494 206.046 29.564 203.708 29.564C201.371 29.564 199.476 31.3494 199.476 33.5519C199.476 35.7543 201.371 37.5398 203.708 37.5398Z" fill="#494993"/>
<path d="M89.6753 113.346C90.8524 113.346 91.8066 112.447 91.8066 111.338C91.8066 110.229 90.8524 109.329 89.6753 109.329C88.4982 109.329 87.5439 110.229 87.5439 111.338C87.5439 112.447 88.4982 113.346 89.6753 113.346Z" fill="#494993"/>
<path d="M73.8165 194.17C76.6672 194.17 78.9781 191.992 78.9781 189.307C78.9781 186.621 76.6672 184.443 73.8165 184.443C70.9657 184.443 68.6548 186.621 68.6548 189.307C68.6548 191.992 70.9657 194.17 73.8165 194.17Z" fill="#494993"/>
<path d="M124.328 236.022C127.178 236.022 129.489 233.844 129.489 231.159C129.489 228.473 127.178 226.295 124.328 226.295C121.477 226.295 119.166 228.473 119.166 231.159C119.166 233.844 121.477 236.022 124.328 236.022Z" fill="#0093DD"/>
<path d="M234.424 190.15C234.424 190.15 170.443 238.651 155.733 176.983C141.024 115.315 91.0175 68.2009 55.7173 106.993" stroke="black" stroke-width="1.26" stroke-miterlimit="10" stroke-linecap="round"/>
<path d="M64.546 114.627C64.546 114.627 6.44907 225.491 114.556 244.199" stroke="black" stroke-width="1.26" stroke-miterlimit="10" stroke-linecap="round"/>
<path d="M82.941 216.139C56.1775 215.433 44.8915 270.18 43.5018 271.045C42.0035 271.98 36.5084 272.456 38.0067 263.108C38.0067 263.108 28.0167 277.577 29.0169 267.777C30.017 257.976 29.0169 261.707 29.0169 261.707C29.0169 261.707 15.5396 277.101 18.0268 266.842L20.5252 256.572C20.5252 256.572 10.037 277.581 10.5352 266.376C11.0334 255.171 16.5285 247.234 16.5285 247.234C16.5285 247.234 0.0470462 274.313 1.04342 263.574C2.0398 252.834 10.0333 187.009 54.4956 190.743" stroke="black" stroke-width="1.26" stroke-miterlimit="10" stroke-linecap="round"/>
</svg>
