<svg width="342" height="274" viewBox="0 0 342 274" fill="none" xmlns="http://www.w3.org/2000/svg">
<path d="M274.07 60.2616L88.9783 12.7028L86.8825 20.8095L271.974 68.3684L274.07 60.2616Z" fill="#C63539"/>
<path d="M26.5051 87.8497L80.4791 65.5253L64.6884 12.0983L48.8044 51.8065L28.8533 13.0085L29.583 57.6402L1 30.5578L26.5051 87.8497Z" fill="#0093DD"/>
<path d="M72.0897 141.356L23.9326 95.2348C23.9326 95.2348 42.6075 40.1425 85.4043 73.6447L100.036 71.445L92.7013 87.498L154.702 123.796" stroke="black" stroke-width="1.26" stroke-miterlimit="10" stroke-linecap="round"/>
<path d="M229.394 231.954C229.394 231.954 266.028 244.763 265.361 241.608C264.693 238.453 250.269 230.458 250.269 230.458C250.269 230.458 274.785 246.362 270.925 237.539C267.066 228.716 250.003 224.141 250.003 224.141C250.003 224.141 277.766 237.243 273.519 228.299C269.272 219.356 252.105 214.943 252.105 214.943C252.105 214.943 284.046 228.348 277.389 217.777C270.732 207.206 249.747 205.309 249.747 205.309C249.747 205.309 285.973 212.16 280.356 206.13C274.74 200.1 247.291 188.65 247.291 188.65C247.291 188.65 297.973 1.49302 244.815 53.1513C191.657 104.81 227.797 155.482 196.997 174.886C196.997 174.886 164.793 200.214 182.226 130.641C199.66 61.0675 264.261 114.415 221.254 53.0858" stroke="black" stroke-width="1.26" stroke-miterlimit="10" stroke-linecap="round"/>
<path d="M298.654 242.128C298.654 242.128 318.021 243.063 321.766 226.834C325.511 210.605 340.51 161.836 340.97 160.236C341.43 158.636 336.474 153.175 332.494 165.304C328.513 177.434 327.732 181.823 327.732 181.823C327.732 181.823 323.969 181.895 331.135 160.302C338.3 138.708 324.91 160.822 320.76 175.207C316.61 189.591 319.722 177.213 319.722 177.213C319.722 177.213 324.764 161.353 324.419 156.064C324.073 150.775 318.598 156.713 315.565 165.642C313.753 170.907 312.498 176.346 311.82 181.871C311.82 181.871 314.587 164.205 314.722 155.592C314.856 146.979 309.278 169.607 306.235 178.541C303.191 187.474 305.332 171.938 307.359 163.288C309.385 154.637 307.801 145.535 304.423 157.257C301.044 168.98 293.391 193.914 278.081 209.698C262.771 225.482 248.654 264.711 196.63 210.002C144.607 155.292 84.2348 106.84 101.803 188.591C119.371 270.342 178.578 285.581 200.791 263.684" stroke="black" stroke-width="1.134" stroke-miterlimit="10" stroke-linecap="round"/>
<path d="M117.106 156.806C117.106 156.806 15.7768 205.468 52.7601 121.411" stroke="black" stroke-width="1.26" stroke-miterlimit="10" stroke-linecap="round"/>
<path d="M25.3989 98.5585C25.3989 98.5585 -33.0294 170.814 32.0562 202.534C97.1418 234.253 152.603 223.169 152.603 223.169" stroke="black" stroke-width="1.26" stroke-miterlimit="10" stroke-linecap="round"/>
<path d="M165.744 48.7899L157.624 36.5778L164.855 15.891C165.309 14.5923 165.171 13.1607 164.478 11.9718C163.784 10.7828 162.605 9.95509 161.248 9.70566C158.949 9.26968 156.676 10.5779 155.905 12.7811L147.069 37.981L152.841 52.8755C152.841 52.8755 160.556 71.0902 141.363 87.6155" stroke="black" stroke-width="1.26" stroke-miterlimit="10" stroke-linecap="round"/>
<path d="M158.526 34.509L165.858 17.0838C166.121 16.3426 166.59 15.6911 167.21 15.2048L176.894 7.61965C177.862 6.86009 179.117 6.56487 180.325 6.81273C181.532 7.06058 182.568 7.82631 183.157 8.90568C184.132 10.6933 183.67 12.9216 182.064 14.1774L173.335 21.004C172.768 21.4488 172.329 22.0383 171.709 23.0727L168.41 38.0223" stroke="black" stroke-width="1.26" stroke-miterlimit="10" stroke-linecap="round"/>
<path d="M168.507 38.3806L173.387 23.7792C173.649 23.039 174.115 22.3876 174.732 21.9002L184.416 14.315C185.384 13.5543 186.64 13.2583 187.847 13.5063C189.055 13.7542 190.091 14.5208 190.679 15.6011C191.652 17.3889 191.191 19.6162 189.586 20.8727L180.857 27.6994C180.29 28.141 179.848 28.722 179.574 29.3853L174.549 42.7973" stroke="black" stroke-width="1.26" stroke-miterlimit="10" stroke-linecap="round"/>
<path d="M174.785 43.3731L181.259 29.3854C181.525 28.6447 181.995 27.9935 182.615 27.5064L192.298 19.9212C193.264 19.161 194.517 18.8643 195.723 19.1101C196.929 19.356 197.965 20.1195 198.554 21.1969C199.525 22.9843 199.06 25.2095 197.454 26.4617L188.715 33.2814C188.151 33.7258 187.709 34.306 187.432 34.9674L181.788 47.0002" stroke="black" stroke-width="1.26" stroke-miterlimit="10" stroke-linecap="round"/>
<path d="M181.822 46.8315L189.24 35.1814C189.452 34.5852 189.83 34.0614 190.329 33.6713L198.107 27.5687C198.885 26.9571 199.894 26.7193 200.864 26.9187C201.834 27.1182 202.667 27.7346 203.139 28.603C203.92 30.0405 203.546 31.8305 202.253 32.8369L195.237 38.3155C194.779 38.6697 194.421 39.1367 194.199 39.6704L189.451 51.0482L179.076 69.1387C179.076 69.1387 174.431 150.396 155.864 152.506C137.296 154.616 122.56 86.488 111.421 117.756" stroke="black" stroke-width="1.26" stroke-miterlimit="10" stroke-linecap="round"/>
<path d="M183.828 50.0723C183.828 50.0723 185.823 43.7387 164.23 37.0811" stroke="black" stroke-width="1.26" stroke-miterlimit="10" stroke-linecap="round"/>
<path d="M89.9895 31.4577C98.7028 31.4577 105.766 24.4156 105.766 15.7288C105.766 7.04204 98.7028 0 89.9895 0C81.2762 0 74.2126 7.04204 74.2126 15.7288C74.2126 24.4156 81.2762 31.4577 89.9895 31.4577Z" fill="#C63539"/>
<path d="M168.383 146.652C169.567 146.652 170.527 145.695 170.527 144.514C170.527 143.334 169.567 142.377 168.383 142.377C167.199 142.377 166.239 143.334 166.239 144.514C166.239 145.695 167.199 146.652 168.383 146.652Z" fill="#494993"/>
<path d="M229.529 16.5666C232.717 16.5666 235.301 13.9903 235.301 10.8122C235.301 7.63418 232.717 5.05786 229.529 5.05786C226.341 5.05786 223.757 7.63418 223.757 10.8122C223.757 13.9903 226.341 16.5666 229.529 16.5666Z" fill="#0093DD"/>
<path d="M232.012 134.174C233.907 134.174 235.443 132.643 235.443 130.754C235.443 128.865 233.907 127.334 232.012 127.334C230.118 127.334 228.582 128.865 228.582 130.754C228.582 132.643 230.118 134.174 232.012 134.174Z" fill="#C63539"/>
</svg>
