<svg width="248" height="302" viewBox="0 0 248 302" fill="none" xmlns="http://www.w3.org/2000/svg">
<path d="M188.645 58.4784L24.8619 143.13L84.1567 257.853L247.939 173.201L188.645 58.4784Z" fill="#0093DD"/>
<path d="M138.16 186.623C152.516 186.623 164.154 174.984 164.154 160.628C164.154 146.271 152.516 134.633 138.16 134.633C123.803 134.633 112.165 146.271 112.165 160.628C112.165 174.984 123.803 186.623 138.16 186.623Z" fill="#C63539"/>
<path d="M144.998 181.837C159.354 181.837 170.993 170.199 170.993 155.843C170.993 141.486 159.354 129.848 144.998 129.848C130.642 129.848 119.003 141.486 119.003 155.843C119.003 170.199 130.642 181.837 144.998 181.837Z" stroke="black" stroke-width="1.26" stroke-miterlimit="10"/>
<path d="M68.8025 113.539L68.8984 38.9138L79.3865 32.5167L54.313 1.50673C54.313 1.50673 12.2489 -7.76907 9.62927 53.0514C6.88811 116.44 -13.314 207.813 19.6535 207.813C52.621 207.813 63.6081 151.711 94.2598 180.053" stroke="black" stroke-width="1.26" stroke-miterlimit="10" stroke-linecap="round"/>
<path d="M148.446 301C148.446 301 181.839 287.806 179.472 285.989C177.105 284.173 162.133 287.304 162.133 287.304C162.133 287.304 188.931 283.616 180.877 279.768C172.823 275.92 158.112 283.034 158.112 283.034C158.112 283.034 185.479 275.415 177.083 271.711C168.687 268.007 153.999 275.306 153.999 275.306C153.999 275.306 184.475 265.391 173.395 262C162.315 258.61 146.495 269.997 146.495 269.997C146.495 269.997 175.986 252.871 168.399 252.043C160.812 251.215 134.664 259.793 134.664 259.793C134.664 259.793 56.4529 97.8472 50.6443 166.235C44.8357 234.624 100.897 248.32 91.1412 280.577C91.1412 280.577 84.0052 317.834 53.9452 258.485C23.8852 199.136 101.45 197.453 34.1398 180.479" stroke="black" stroke-width="1.26" stroke-miterlimit="10" stroke-linecap="round"/>
<path d="M44.2343 205.059C44.2343 205.059 10.8382 292.527 14.5485 290.406C18.2588 288.286 24.093 280.334 24.093 280.334C24.093 280.334 12.4279 304.189 21.9723 295.706C31.5168 287.224 35.2175 279.272 35.2175 279.272C35.2175 279.272 25.1453 304.189 34.6866 295.175C44.2279 286.162 46.8795 276.093 46.8795 276.093C46.8795 276.093 38.9279 308.43 49.5311 295.706C60.1343 282.983 60.1311 277.155 60.1311 277.155C60.1311 277.155 60.1311 304.192 65.4343 294.651C70.7375 285.11 73.92 245.879 73.92 245.879C73.92 245.879 259.986 232.097 173.05 186.508C86.1129 140.919 107.754 207.721 70.6479 176.976" stroke="black" stroke-width="1.26" stroke-miterlimit="10" stroke-linecap="round"/>
<path d="M211.138 84.5603L187.005 96.7916C184.446 98.0934 183.573 100.918 185.115 102.968C186.484 104.791 189.298 105.37 191.636 104.308L216.304 93.1132C218.757 92.0001 219.845 89.4733 218.763 87.3846L218.229 86.3515C217.052 84.0581 213.767 83.2329 211.138 84.5603Z" stroke="black" stroke-width="1.26" stroke-miterlimit="10" stroke-linecap="round"/>
<path d="M217.017 92.9597L192.884 105.188C190.325 106.49 189.455 109.314 190.997 111.364C192.366 113.187 195.177 113.766 197.519 112.704L222.186 101.509C224.639 100.396 225.723 97.8695 224.645 95.7808L224.111 94.7477C222.928 92.4543 219.643 91.6291 217.017 92.9597Z" stroke="black" stroke-width="1.26" stroke-miterlimit="10" stroke-linecap="round"/>
<path d="M223.382 101.439L199.281 113.722C196.722 115.027 195.862 117.854 197.41 119.901C198.785 121.721 201.6 122.294 203.938 121.225L228.567 109.976C231.017 108.857 232.085 106.33 231.011 104.244L230.48 103.221C229.29 100.924 226.002 100.105 223.382 101.439Z" stroke="black" stroke-width="1.26" stroke-miterlimit="10" stroke-linecap="round"/>
<path d="M227.927 110.161L204.971 124.014C202.528 125.489 201.939 128.352 203.692 130.28C205.24 131.992 208.109 132.363 210.348 131.144L233.941 118.279C236.288 117 237.139 114.416 235.86 112.42L235.22 111.431C233.794 109.24 230.425 108.661 227.927 110.161Z" stroke="black" stroke-width="1.26" stroke-miterlimit="10" stroke-linecap="round"/>
<path d="M148.227 76.3416C150.402 76.3416 152.164 74.5788 152.164 72.4042C152.164 70.2296 150.402 68.4668 148.227 68.4668C146.052 68.4668 144.29 70.2296 144.29 72.4042C144.29 74.5788 146.052 76.3416 148.227 76.3416Z" fill="#494993"/>
<path d="M83.1098 85.5359C84.205 85.5359 85.0929 84.648 85.0929 83.5528C85.0929 82.4576 84.205 81.5697 83.1098 81.5697C82.0146 81.5697 81.1267 82.4576 81.1267 83.5528C81.1267 84.648 82.0146 85.5359 83.1098 85.5359Z" fill="#494993"/>
<path d="M106.472 47.6139C109.42 47.6139 111.81 45.2238 111.81 42.2755C111.81 39.3272 109.42 36.9371 106.472 36.9371C103.524 36.9371 101.134 39.3272 101.134 42.2755C101.134 45.2238 103.524 47.6139 106.472 47.6139Z" fill="#0093DD"/>
</svg>
