<svg width="1440" height="1024" viewBox="0 0 1440 1024" fill="none" xmlns="http://www.w3.org/2000/svg">
<path d="M1172.35 363.166C1186.35 411.778 1152.25 457.369 1112.64 488.836C989.949 586.3 950.774 741.837 797.878 777.907C753.415 788.397 708.232 770.949 670.095 745.8C460.322 607.467 329.284 578.901 268.387 504.244C211.642 434.679 285.514 344.168 366.775 306.013C381.182 299.249 395.845 292.103 410.625 284.601C605.131 185.877 860.721 99.7921 1046.85 213.53C1109.55 251.849 1153.33 297.116 1172.35 363.166Z" fill="#DCEFFF" fill-opacity="0.4"/>
<path d="M1133.79 353.393C1148.92 401.529 1114.51 447.166 1075.67 479.375C967.945 568.715 930.433 706.738 796.352 742.209C751.937 753.959 706.453 736.001 668.103 710.701C485.288 590.098 368.162 560.742 309.89 497.791C249.024 432.039 308.128 345.955 389.248 307.907V307.907C587.714 214.819 868.73 108.515 1045.97 237.511C1088.24 268.272 1118.47 304.614 1133.79 353.393Z" fill="url(#paint0_linear_142_4455)"/>
<defs>
<linearGradient id="paint0_linear_142_4455" x1="796.101" y1="737.149" x2="672.343" y2="173.851" gradientUnits="userSpaceOnUse">
<stop stop-color="#D2EAFF"/>
<stop offset="1" stop-color="#DCEFFF" stop-opacity="0"/>
</linearGradient>
</defs>
</svg>
